<?xml version="1.0" encoding="iso-8859-1"?>
<!-- Generator: Adobe Illustrator 16.0.0, SVG Export Plug-In . SVG Version: 6.00 Build 0)  -->
<!DOCTYPE svg PUBLIC "-//W3C//DTD SVG 1.1//EN" "http://www.w3.org/Graphics/SVG/1.1/DTD/svg11.dtd">
<svg version="1.1" id="Capa_1" xmlns="http://www.w3.org/2000/svg" xmlns:xlink="http://www.w3.org/1999/xlink" x="0px" y="0px"
	 width="26.354px" height="26.354px" viewBox="0 0 26.354 26.354" style="enable-background:new 0 0 26.354 26.354;"
	 xml:space="preserve">
<g>
	<path d="M21.957,3.11l0.74-1.021l-1.764-1.277l-0.739,1.021l-0.586-0.425l-1.322-0.96L17.67,0l-5.596,8.827l0.529,0.384l5.12-7.415
		l0.934,0.676l-9.957,13.73c-0.279-0.146-0.612-0.097-0.786,0.144c-0.173,0.238-0.114,0.569,0.107,0.791l-0.011,0.016l1.935,1.404
		l1.001,0.727h0.001l0.134,0.097l0.017-0.024c0.268,0.109,0.569,0.055,0.73-0.17c0.161-0.223,0.123-0.524-0.064-0.746L22.559,3.549
		L21.957,3.11z M11.257,18.035l-2.025-1.471L19.635,2.222l2.025,1.47L11.257,18.035z M19.202,3.615l0.976,0.708L16.53,9.352
		l-0.976-0.708L19.202,3.615z M4.435,23.4l0.148,0.121l-0.43,1.058l0.251,0.182l-0.748,1.36l0.321,0.232l1.008-1.174l0.279,0.203
		l0.747-0.699l0.219,0.178l4.537-5.055L7.699,17.58L4.435,23.4z M9.809,19.909L6.16,23.973l-0.897-0.729l2.644-4.716L9.809,19.909z"
		/>
</g>
<g>
</g>
<g>
</g>
<g>
</g>
<g>
</g>
<g>
</g>
<g>
</g>
<g>
</g>
<g>
</g>
<g>
</g>
<g>
</g>
<g>
</g>
<g>
</g>
<g>
</g>
<g>
</g>
<g>
</g>
</svg>
